M48
;DRILL file {KiCad 5.0.0-fee4fd1~66~ubuntu18.04.1} date Tue Sep 11 23:23:22 2018
;FORMAT={-:-/ absolute / metric / decimal}
FMAT,2
METRIC,TZ
T1C0.400
T2C0.700
T3C0.800
T4C0.900
T5C1.000
T6C1.016
T7C1.100
T8C3.100
%
G90
G05
M71
T1
X134.15Y-80.416
X134.658Y-97.688
X143.294Y-78.257
X144.12Y-73.939
T2
X138.644Y-68.368
X138.644Y-70.368
X138.644Y-72.368
X138.644Y-74.368
X138.644Y-76.368
X138.644Y-78.368
X138.644Y-80.368
X138.644Y-82.368
X138.644Y-84.368
X138.644Y-86.368
X160.644Y-68.368
X160.644Y-70.368
X160.644Y-72.368
X160.644Y-74.368
X160.644Y-76.368
X160.644Y-78.368
X160.644Y-80.368
X160.644Y-82.368
X160.644Y-84.368
X160.644Y-86.368
T3
X127.038Y-100.736
X127.038Y-110.896
X144.056Y-103.53
X144.056Y-106.07
X151.676Y-103.53
X151.676Y-106.07
X130.34Y-90.322
X130.34Y-100.482
T4
X127.426Y-122.58
X130.026Y-122.58
X132.626Y-122.58
T5
X152.184Y-72.796
X152.184Y-75.336
X152.184Y-77.876
X127.546Y-67.462
X127.546Y-70.002
X127.546Y-72.542
X158.153Y-106.261
X158.153Y-108.801
X158.153Y-111.341
T6
X116.37Y-62.382
X116.37Y-64.922
X116.37Y-67.462
X116.37Y-70.002
X116.37Y-72.542
X116.37Y-75.082
X116.37Y-77.622
X116.37Y-80.162
X116.37Y-82.702
X116.37Y-85.242
X116.37Y-87.782
X116.37Y-90.322
X116.37Y-92.862
X116.37Y-95.402
X116.37Y-97.942
X116.37Y-100.482
X116.37Y-103.022
X116.37Y-105.562
X116.37Y-108.102
X116.37Y-110.642
X116.37Y-113.182
X116.37Y-115.722
X116.37Y-118.262
X118.91Y-62.382
X118.91Y-64.922
X118.91Y-67.462
X118.91Y-70.002
X118.91Y-72.542
X118.91Y-75.082
X118.91Y-77.622
X118.91Y-80.162
X118.91Y-82.702
X118.91Y-85.242
X118.91Y-87.782
X118.91Y-90.322
X118.91Y-92.862
X118.91Y-95.402
X118.91Y-97.942
X118.91Y-100.482
X118.91Y-103.022
X118.91Y-105.562
X118.91Y-108.102
X118.91Y-110.642
X118.91Y-113.182
X118.91Y-115.722
X118.91Y-118.262
X164.63Y-62.382
X164.63Y-64.922
X164.63Y-67.462
X164.63Y-70.002
X164.63Y-72.542
X164.63Y-75.082
X164.63Y-77.622
X164.63Y-80.162
X164.63Y-82.702
X164.63Y-85.242
X164.63Y-87.782
X164.63Y-90.322
X164.63Y-92.862
X164.63Y-95.402
X164.63Y-97.942
X164.63Y-100.482
X164.63Y-103.022
X164.63Y-105.562
X164.63Y-108.102
X164.63Y-110.642
X164.63Y-113.182
X164.63Y-115.722
X164.63Y-118.262
X167.17Y-62.382
X167.17Y-64.922
X167.17Y-67.462
X167.17Y-70.002
X167.17Y-72.542
X167.17Y-75.082
X167.17Y-77.622
X167.17Y-80.162
X167.17Y-82.702
X167.17Y-85.242
X167.17Y-87.782
X167.17Y-90.322
X167.17Y-92.862
X167.17Y-95.402
X167.17Y-97.942
X167.17Y-100.482
X167.17Y-103.022
X167.17Y-105.562
X167.17Y-108.102
X167.17Y-110.642
X167.17Y-113.182
X167.17Y-115.722
X167.17Y-118.262
T7
X160.312Y-116.738
X160.312Y-125.938
X144.2Y-116.786
X144.2Y-119.786
X147.2Y-116.786
X147.2Y-119.786
X150.2Y-116.786
X150.2Y-119.786
X153.2Y-116.786
X153.2Y-119.786
X122.212Y-51.968
X122.212Y-54.968
X125.212Y-51.968
X125.212Y-54.968
X128.212Y-51.968
X128.212Y-54.968
X131.212Y-51.968
X131.212Y-54.968
X158.534Y-52.222
X158.534Y-56.722
X165.034Y-52.222
X165.034Y-56.722
T8
X146.4Y-124.106
X151.1Y-124.106
X124.312Y-47.648
X129.012Y-47.648
T0
M30
